# xmcd
#
# Track frame offsets:
#	150
#	74942
#	152882
#
# Disc length: 3030 seconds
#
# Revision: 1
# Processed by: cddbd v1.5.1PL0 Copyright (c) Steve Scherf et al.
# Submitted via: CDex 1.50Beta5
#
DISCID=2a0bd403
DTITLE=Marcus Miller Michel Petrucciani Bir将アli Lagr将イne Lenny White Kenny Garret - Dreyfus Night In Paris
DYEAR=1994
DGENRE=Jazz
TTITLE0=Tutu
TTITLE1=The King Is Gone
TTITLE2=Looking Up
EXTD=
EXTT0=
EXTT1=
EXTT2=
PLAYORDER=
